<?xml version="1.0" encoding="UTF-8" standalone="no"?>
<svg
   xmlns:dc="http://purl.org/dc/elements/1.1/"
   xmlns:cc="http://creativecommons.org/ns#"
   xmlns:rdf="http://www.w3.org/1999/02/22-rdf-syntax-ns#"
   xmlns:svg="http://www.w3.org/2000/svg"
   xmlns="http://www.w3.org/2000/svg"
   xmlns:sodipodi="http://sodipodi.sourceforge.net/DTD/sodipodi-0.dtd"
   xmlns:inkscape="http://www.inkscape.org/namespaces/inkscape"
   version="1.1"
   id="svg3738"
   sodipodi:docname="grez.svg"
   width="16"
   height="16"
   inkscape:version="0.92.4 (5da689c313, 2019-01-14)">
  <defs
     id="defs3742" />
  <sodipodi:namedview
     pagecolor="#ffffff"
     bordercolor="#666666"
     borderopacity="1"
     objecttolerance="10"
     gridtolerance="10"
     guidetolerance="10"
     inkscape:pageopacity="0"
     inkscape:pageshadow="2"
     inkscape:window-width="1920"
     inkscape:window-height="1013"
     id="namedview3740"
     showgrid="false"
     fit-margin-top="0"
     fit-margin-left="0"
     fit-margin-right="0"
     fit-margin-bottom="0"
     inkscape:zoom="89.4375"
     inkscape:cx="8"
     inkscape:cy="8"
     inkscape:window-x="-9"
     inkscape:window-y="-9"
     inkscape:window-maximized="1"
     inkscape:current-layer="svg3738" />
  <path
     class="fil0"
     d="m 15.277741,8.8214779 c 0.220455,-0.48756 0.337847,-1.00538 0.207059,-1.41879 -0.171406,-0.5418 -0.652925,-0.93425 -1.162698,-1.18507 -0.353895,-0.17414 -2.060262,-0.73078 -1.880493,-1.04117 0.300319,-0.51875 -0.289589,-0.79306 -0.641254,-1.16669 -0.938024,-0.99634 -1.277219,-1.45601 -2.2248869,-2.02621 -0.9140647,-0.55 -2.1485643,-0.63499 -2.8434554,-0.58681 1.8533694,0.2592 3.4620233,1.19156 2.7690162,1.94363 -0.3783136,0.41065 -1.1874854,0.35376 -2.570562,-0.13734 C 5.4715196,2.6849979 3.5537318,1.7685679 2.6499138,0.02346795 3.0558106,2.0984979 5.4910335,3.3621579 7.2179015,4.0449879 c -0.8198856,0.2131 -1.3027607,0.34907 -2.2459832,0.83059 -1.3209184,-0.33705 -2.7424954,-0.39395 -4.03327649,0.93659 1.35376809,-0.66387 2.40684109,-0.72551 2.77105049,-0.21966 -0.6047353,0.4422 -1.0279083,0.81981 -1.3968644,1.3433 -1.2437669,0.38689 -1.93730177,0.78349 -2.27928492,1.87642 0.53092149,-0.81921 1.16842362,-1.1865 1.74577922,-0.94352 -0.2267155,0.55281 -0.3333037,1.16172 -0.3070917,1.84561 -0.54186892,0.4436301 -0.92144837,1.0399601 -1.01223702,2.4624401 0.31018075,-1.1688 0.73365522,-1.62184 1.11274492,-1.57957 0.00735,0.04 0.014835,0.0802 0.022972,0.12056 0.1094738,0.54425 0.2752591,1.0041 0.48066,1.42813 -0.4645215,0.48123 -0.7265277,1.12653 -0.5738521,2.77941 0.042637,-1.13399 0.3338084,-1.97942 0.9580651,-2.12762 0.3062931,0.47655 0.7917826,1.22132 1.1474028,1.78345 0.2288703,0.36182 0.3385551,0.91565 0.3134959,1.49715 h 7.7852209 c 0.540498,-3.08651 -3.8310546,-4.13469 -4.9721286,-5.12975 -0.5161542,-0.45012 -0.9050235,-1.3943001 -0.7392683,-2.0587501 0.2110139,-0.84633 0.8428653,-1.62915 1.6076749,-1.91041 0.3244433,0.28174 0.5029767,0.41116 0.6291541,0.82147 0.3876035,1.2608 0.6064682,1.8649 2.3651759,2.8923501 0.490372,0.28642 0.994532,0.121 1.431749,0.0609 -0.273964,-0.065 -0.51177,-0.0758 -0.785831,-0.14079 0.252574,-0.0505 0.450915,-0.28174 0.504567,-0.42261 -0.345833,0.20482 -0.763906,0.16867 -1.254466,-0.10832 0.25084,-0.0537 0.577084,-0.1843701 0.763228,-0.2853401 -0.360382,0.02 -0.891914,-0.0418 -1.05782,-0.21101 -0.135904,-0.13864 -0.290456,-0.35196 -0.340936,-0.53971 0.286704,0.17335 0.636282,0.0187 0.87466,-6e-4 -0.396969,-0.073 -1.0873541,-0.42628 -1.2597395,-0.72293 -0.3081691,-0.52998 -0.5309215,-1.01999 -0.5890413,-1.53142 0.6556598,0.63441 1.3564808,1.35791 1.9763298,1.95402 0.725947,0.69808 1.616113,1.21989 2.464478,1.3532501 0.681367,0.10709 0.845126,0.16614 1.327097,0.71219 -0.23709,-0.80723 -0.876845,-0.8309601 -1.208582,-0.9496201 0.489732,-0.0238 0.979388,0.0238 1.540318,0.3799701 -0.529263,-0.6647301 -1.081326,-0.6009301 -1.635175,-0.5937201 -0.572194,0.007 -1.42218,-0.28549 -2.085351,-0.97336 -0.66999,-0.69505 -1.237287,-1.24211 -1.8644449,-2.20982 0.7186089,0.2041 1.4041729,0.62052 1.6356269,1.39227 0.07259,-0.41418 5.28e-4,-0.80414 -0.216272,-1.17016 0.377093,-0.0385 0.980216,0.59574 1.550112,1.56963 0.0042,-0.34663 0.04818,-0.6108 -0.09492,-1.12382 0.608849,0.10139 0.958216,0.4167 1.306227,1.12382 0.153331,-0.27555 0.22722,-0.60504 -0.03075,-0.97721 0.701393,0.15254 0.872701,0.7356 1.138136,1.29983 0.07267,-0.30608 0.132295,-0.5719 0.190415,-0.71263 0.152178,-0.005 0.396464,0.24134 0.400638,0.9555 z m -0.84294,-2.22624 c 0.121137,0.0603 0.316449,0.19741 0.346843,0.41483 -0.116963,-0.0795 -0.216416,-0.0102 -0.397692,-0.15369 -0.17176,-0.13654 -0.212815,-0.23586 -0.301682,-0.27396 0.11969,-0.0301 0.273812,-0.0265 0.352531,0.0128 z m -3.658519,-2.22308 c 0.345117,0.17255 0.400856,0.28044 0.640033,0.7459 -0.358219,-0.27749 -0.555626,-0.0252 -0.825385,-0.23291 -0.249183,-0.19186 -0.427069,-0.46632 -0.7565975,-0.57493 0.3407925,-0.085 0.7178855,-0.05 0.9419415,0.0619 z"
     id="path3734"
     inkscape:connector-curvature="0"
     style="stroke-width:0.07534328" />
  <metadata
     id="metadata3736">
    <rdf:RDF>
      <cc:Work>
        <dc:format>image/svg+xml</dc:format>
        <dc:type
           rdf:resource="http://purl.org/dc/dcmitype/StillImage" />
        <cc:license
           rdf:resource="http://creativecommons.org/publicdomain/zero/1.0/" />
        <dc:publisher>
          <cc:Agent
             rdf:about="http://openclipart.org/">
            <dc:title>Openclipart</dc:title>
          </cc:Agent>
        </dc:publisher>
        <dc:title></dc:title>
        <dc:date>2010-06-07T15:01:21</dc:date>
        <dc:description>avatar, black, clip art, clipart, dragon, icon, silhouette, tattoo, </dc:description>
        <dc:source>http://openclipart.org/detail/64849/dragon-head-silhouette-by-kuba</dc:source>
        <dc:creator>
          <cc:Agent>
            <dc:title>kuba</dc:title>
          </cc:Agent>
        </dc:creator>
        <dc:subject>
          <rdf:Bag>
            <rdf:li>avatar</rdf:li>
            <rdf:li>black</rdf:li>
            <rdf:li>clip art</rdf:li>
            <rdf:li>clipart</rdf:li>
            <rdf:li>dragon</rdf:li>
            <rdf:li>icon</rdf:li>
            <rdf:li>silhouette</rdf:li>
            <rdf:li>tattoo</rdf:li>
          </rdf:Bag>
        </dc:subject>
      </cc:Work>
      <cc:License
         rdf:about="http://creativecommons.org/publicdomain/zero/1.0/">
        <cc:permits
           rdf:resource="http://creativecommons.org/ns#Reproduction" />
        <cc:permits
           rdf:resource="http://creativecommons.org/ns#Distribution" />
        <cc:permits
           rdf:resource="http://creativecommons.org/ns#DerivativeWorks" />
      </cc:License>
    </rdf:RDF>
  </metadata>
  <path
     style="stroke-width:0.01118099;fill:#999999"
     d="m 3.9077568,15.503557 c 0,-0.0055 -0.00998,-0.06846 -0.022182,-0.139823 -0.045967,-0.26888 -0.1116211,-0.479835 -0.2056334,-0.660729 -0.1000429,-0.192498 -1.2004677,-1.898831 -1.2279857,-1.90413 -0.010187,-0.002 -0.052837,0.01004 -0.094777,0.02666 C 1.88117,13.014231 1.5980499,13.626928 1.5128721,14.65269 l -0.014391,0.173306 -0.00775,-0.09504 c -0.019855,-0.243505 -0.029589,-0.688839 -0.019796,-0.90566 0.032993,-0.730462 0.1882583,-1.193966 0.5335817,-1.592862 L 2.0815798,12.143414 2.0275498,12.028 C 1.852306,11.653655 1.686643,11.144978 1.6029081,10.724112 l -0.026388,-0.132631 -0.089448,0.0047 c -0.075132,0.004 -0.1037175,0.01157 -0.1786082,0.0476 -0.073252,0.03524 -0.109355,0.06306 -0.2023453,0.155878 -0.13628292,0.136034 -0.2226089,0.263232 -0.33467838,0.493132 -0.0884868,0.181523 -0.16435135,0.376701 -0.24554899,0.631726 l -0.0516188,0.162125 0.006679,-0.100629 c 0.0100225,-0.151003 0.0481128,-0.439961 0.0795889,-0.603774 0.13841693,-0.72037 0.38805538,-1.200433 0.82408277,-1.5847377 l 0.087628,-0.077233 0.00342,-0.2535706 c 0.00698,-0.51779 0.081178,-0.957801 0.235058,-1.3940212 0.034709,-0.098393 0.063994,-0.1860883 0.065078,-0.1948789 C 1.7785464,7.8555813 1.6499244,7.8138287 1.5292941,7.7977758 1.1140605,7.7425185 0.64981675,7.9997141 0.24545803,8.5090336 0.19654976,8.5706371 0.13682873,8.6498609 0.11274465,8.6850862 0.08866056,8.7203116 0.06693302,8.7471101 0.06446123,8.7446382 0.06198943,8.7421664 0.0823403,8.6829246 0.10968537,8.6129896 0.34624788,8.0079814 0.70989241,7.6222081 1.3305381,7.3178445 1.5742491,7.1983291 1.7205318,7.1395698 2.0573026,7.0259154 l 0.2571628,-0.086788 0.049412,-0.064952 C 2.6938155,6.4404812 3.0350703,6.1076791 3.5413735,5.7258468 L 3.7172683,5.5931944 3.6817903,5.5483997 C 3.5574568,5.391416 3.314026,5.2870961 3.0058832,5.2587467 2.5469148,5.2165211 1.8621153,5.3827618 1.1361081,5.71265 1.0599191,5.747269 0.99565056,5.773661 0.99328849,5.771299 0.99092649,5.768939 1.0231535,5.734837 1.0649042,5.695522 1.6774942,5.1186633 2.2940993,4.8139605 3.0691824,4.7050837 c 0.1983179,-0.027858 0.7443027,-0.027893 0.9727463,-6.7e-5 0.2310378,0.028146 0.511652,0.077559 0.7349953,0.1294251 L 4.969641,4.8791952 5.2018017,4.7671165 C 5.8619723,4.44841 6.2915937,4.292679 7.0809968,4.0859378 7.1566771,4.0661173 7.2145388,4.0459584 7.2095782,4.0411399 7.2046176,4.036325 7.1125087,3.9963646 7.0048917,3.9523427 4.774286,3.039888 3.354713,1.9005126 2.8276017,0.59957315 c -0.020869,-0.0515066 -0.037944,-0.0955318 -0.037944,-0.0978337 0,-0.002302 0.031446,-0.003926 0.069881,-0.003609 l 0.069881,5.7675e-4 0.065183,0.0936583 c 0.5352791,0.7691227 1.4292959,1.4823177 2.5511695,2.0351763 0.9497466,0.4680346 2.0592552,0.8496469 2.8008386,0.9633401 0.1612047,0.024715 0.5630678,0.02827 0.665269,0.00589 C 9.342245,3.5244099 9.561749,3.3563258 9.6441126,3.1126381 9.6638364,3.0542815 9.6673864,3.0228376 9.6635352,2.940601 9.6583978,2.8308973 9.6328808,2.7530773 9.5637133,2.6361695 9.5149303,2.5537157 9.3165841,2.3525 9.1988299,2.2660071 8.6961167,1.896754 7.8767479,1.5884077 6.9804816,1.4311943 6.8936165,1.4159573 6.8195478,1.4002893 6.8158847,1.3963765 c -0.012684,-0.013549 0.6978542,0.00539 0.8598665,0.022918 0.7924722,0.08574 1.4013785,0.2708173 1.9199015,0.5835561 0.5981353,0.360756 0.9447093,0.6610553 1.6951903,1.468848 0.472615,0.5087068 0.572902,0.6108163 0.779624,0.7937945 0.09564,0.084655 0.212987,0.196002 0.260772,0.2474373 0.195975,0.2109485 0.23462,0.4072019 0.1234,0.6266821 -0.04865,0.095997 -0.03374,0.1490393 0.06801,0.2420354 0.16889,0.154356 0.483048,0.3082761 1.285057,0.6296077 0.488913,0.1958863 0.654634,0.2756056 0.867344,0.4172299 0.456575,0.303991 0.741584,0.6774688 0.834706,1.0938037 0.02269,0.1014478 0.02567,0.3910425 0.0053,0.5168448 -0.03357,0.2075269 -0.09215,0.4125333 -0.182744,0.6395787 l -0.04792,0.1200868 -0.0079,-0.1282604 C 15.257968,8.3715155 15.188907,8.1291447 15.080391,7.9823695 15.036857,7.923486 14.94991,7.8658281 14.904651,7.8658281 c -0.03386,0 -0.03582,0.00279 -0.06483,0.092243 -0.03185,0.098179 -0.142405,0.5337734 -0.142405,0.5610597 0,0.051619 -0.02877,0.00706 -0.106154,-0.1644346 -0.272928,-0.6048238 -0.446568,-0.8292451 -0.75883,-0.9807511 -0.09838,-0.047733 -0.272581,-0.1073323 -0.283068,-0.096846 -0.002,0.00196 0.01921,0.043397 0.04703,0.09209 0.122457,0.2143224 0.147637,0.4511857 0.07149,0.6725071 -0.02734,0.079463 -0.07876,0.1931379 -0.0873,0.1929675 -0.0038,-7.83e-5 -0.03116,-0.04715 -0.06087,-0.1046102 -0.259673,-0.5023075 -0.5646,-0.7997101 -0.953949,-0.93041 -0.09408,-0.031583 -0.283406,-0.075529 -0.291314,-0.067621 -0.0027,0.00273 0.0075,0.057005 0.02272,0.1206087 0.05733,0.2394494 0.07481,0.3950347 0.07329,0.6523304 -6.15e-4,0.1045422 -0.0043,0.2190377 -0.0083,0.2544343 l -0.0072,0.064357 -0.07257,-0.1202624 C 12.182448,7.9378061 12.003124,7.6711802 11.896984,7.5303983 11.488405,6.9884708 11.114831,6.6825805 10.859539,6.6809163 c -0.02306,-1.51e-4 -0.04193,0.00233 -0.04193,0.00552 0,0.00319 0.02548,0.056578 0.05663,0.1186467 0.110091,0.21938 0.164704,0.4254217 0.174675,0.6590002 0.0065,0.1515678 -0.0031,0.3459352 -0.01708,0.3457321 -0.0041,-5.59e-5 -0.02403,-0.04457 -0.04438,-0.098913 C 10.814882,7.2500877 10.415576,6.8702261 9.8336827,6.6133131 9.7162143,6.5614494 9.4072778,6.4548233 9.3988618,6.4632394 c -0.018457,0.018457 0.4622578,0.6790745 0.7114562,0.977711 0.375524,0.4500245 1.213302,1.3242797 1.450828,1.5139981 0.489847,0.3912546 1.055272,0.6342526 1.604472,0.6895409 0.08062,0.00812 0.20365,0.010231 0.32984,0.00567 0.218002,-0.00788 0.462254,0.00534 0.607428,0.032879 0.196926,0.037356 0.394939,0.1247504 0.553694,0.244377 0.08521,0.064207 0.291407,0.2631956 0.282235,0.2723676 -0.0025,0.0025 -0.04548,-0.01875 -0.09556,-0.04716 -0.25965,-0.147331 -0.568412,-0.2469696 -0.883497,-0.2851073 -0.115049,-0.013925 -0.523432,-0.015403 -0.508469,-0.00184 0.0058,0.0053 0.103704,0.035796 0.21747,0.067777 0.319138,0.089715 0.494731,0.1753823 0.639598,0.3120423 0.09348,0.08819 0.160267,0.17263 0.21434,0.271015 0.03961,0.07207 0.107627,0.228271 0.107627,0.247167 0,0.0055 -0.06132,-0.05336 -0.13626,-0.130892 C 14.157681,10.284777 14.001296,10.208912 13.4116,10.10766 13.1407,10.061146 12.955278,10.016627 12.776306,9.9551303 12.20197,9.7577806 11.617512,9.4069655 11.076993,8.9351359 10.903724,8.7838861 10.656545,8.5426606 9.6608604,7.5531145 9.017543,6.9137632 8.8891796,6.7910561 8.8857773,6.812185 8.8731343,6.8907 8.9743783,7.2827742 9.0697954,7.5248078 c 0.1155389,0.2930746 0.3657769,0.7735806 0.46426,0.8914699 0.1783631,0.21351 0.7121776,0.5098377 1.1046586,0.6132112 l 0.05031,0.013252 -0.156534,0.032159 c -0.184219,0.037847 -0.404867,0.052582 -0.497554,0.033227 -0.03382,-0.00706 -0.088462,-0.025342 -0.1214216,-0.040621 l -0.059926,-0.02778 0.00735,0.030801 c 0.038604,0.1618691 0.2822396,0.5027669 0.4130646,0.5779651 0.15936,0.0916 0.473113,0.1511235 0.804097,0.1525491 0.151587,6.53e-4 0.157283,0.00149 0.125475,0.018368 -0.129528,0.068744 -0.502247,0.2085939 -0.635271,0.2383639 -0.03563,0.008 -0.06727,0.01852 -0.07031,0.02344 -0.01464,0.02369 0.307017,0.161325 0.484365,0.207253 0.105726,0.02738 0.14008,0.0311 0.282488,0.03055 0.181156,-6.98e-4 0.278734,-0.02052 0.401907,-0.08163 0.03723,-0.01847 0.06769,-0.03075 0.06769,-0.02727 0,0.0035 -0.02294,0.04082 -0.05098,0.083 -0.09002,0.135405 -0.252588,0.259936 -0.393821,0.30167 -0.02633,0.0078 -0.04394,0.01777 -0.03913,0.0222 0.01,0.0092 0.182533,0.0407 0.487813,0.08908 0.115899,0.01837 0.217878,0.0374 0.226621,0.04229 0.01705,0.0095 -0.35669,0.07306 -0.549156,0.09333 -0.239144,0.02518 -0.491852,-0.0074 -0.684033,-0.08812 C 10.632588,10.71188 10.347539,10.541329 10.062893,10.35335 9.6834809,10.102787 9.4407566,9.9109323 9.2075472,9.6772655 9.0411911,9.5105831 8.9476201,9.3965053 8.8205512,9.2054564 8.6157338,8.8975122 8.4872863,8.5935848 8.2632007,7.8866749 8.1344073,7.480378 8.0584396,7.3663659 7.7216379,7.0738989 L 7.6054002,6.972962 7.5512795,6.9942943 C 6.9377351,7.236131 6.3763834,7.8364082 6.1016398,8.5444558 5.9952779,8.8185632 5.9538784,9.0071892 5.9538784,9.2176908 c 0,0.6572388 0.3611438,1.4129792 0.8616834,1.8031852 0.2447232,0.190779 0.4876636,0.327759 1.5534109,0.875878 0.4955908,0.254884 0.8057277,0.424139 1.1000754,0.600359 1.1893169,0.712017 1.8695989,1.424598 2.1432669,2.245025 0.07702,0.230886 0.133317,0.535949 0.133317,0.72236 v 0.04913 H 7.8266946 c -2.3169017,0 -3.9189378,-0.0041 -3.9189378,-0.01007 z M 14.775244,6.9585011 c -0.03841,-0.1427602 -0.165996,-0.2820646 -0.33384,-0.3644923 -0.05733,-0.028152 -0.07357,-0.030766 -0.191229,-0.030766 -0.07072,0 -0.137249,0.00356 -0.147842,0.00792 -0.01557,0.0064 0.0037,0.030321 0.100629,0.1247725 0.210793,0.2054573 0.259938,0.2365075 0.427366,0.2700125 0.05227,0.01046 0.107617,0.025575 0.122991,0.033589 0.01537,0.00801 0.02954,0.013005 0.03148,0.011093 0.0019,-0.00191 -0.0024,-0.025369 -0.0096,-0.052125 z M 11.353796,4.9839273 C 11.153914,4.6058067 11.071255,4.5159739 10.795959,4.3776756 10.629712,4.2941593 10.354525,4.2439255 10.146751,4.2591667 10.021408,4.268361 9.8336827,4.30003 9.8336827,4.3119807 c 0,0.00521 0.00576,0.00947 0.012803,0.00947 0.029666,0 0.1814173,0.082795 0.2627833,0.1433728 0.04829,0.035951 0.151391,0.1259293 0.229119,0.1999525 0.189956,0.180902 0.271784,0.247608 0.34505,0.2812824 0.05573,0.025616 0.08035,0.028987 0.262753,0.035972 0.227084,0.0087 0.275231,0.019635 0.385965,0.087689 0.03985,0.024491 0.07665,0.044766 0.08177,0.045056 0.0051,2.896e-4 -0.02194,-0.058594 -0.06013,-0.1308507 z"
     id="path15"
     inkscape:connector-curvature="0" />
</svg>
